<svg width="1535" height="1622" viewBox="0 0 1535 1622" fill="none" xmlns="http://www.w3.org/2000/svg">
<circle cx="785" cy="872" r="750" fill="black"/>
<path d="M238.037 976.043C210.205 948.211 196.289 913.787 196.289 872.771C196.289 831.756 210.205 796.6 238.037 767.303C267.334 736.541 302.49 721.16 343.506 721.16H629.15V435.516C629.15 394.5 643.066 360.809 670.898 334.441C698.73 308.074 733.154 294.891 774.17 294.891C815.186 294.891 849.609 308.807 877.441 336.639C906.738 363.006 921.387 395.965 921.387 435.516V721.16H1207.03C1246.58 721.16 1280.27 736.541 1308.11 767.303C1337.4 796.6 1352.05 831.756 1352.05 872.771C1352.05 913.787 1338.13 948.211 1310.3 976.043C1282.47 1002.41 1248.05 1015.59 1207.03 1015.59H921.387V1301.24C921.387 1342.25 906.738 1377.41 877.441 1406.71C849.609 1436 815.186 1450.65 774.17 1450.65C733.154 1450.65 698.73 1436 670.898 1406.71C643.066 1377.41 629.15 1342.25 629.15 1301.24V1015.59H343.506C302.49 1015.59 267.334 1002.41 238.037 976.043Z" fill="#C2D586"/>
</svg>
